<svg xmlns="http://www.w3.org/2000/svg" version="1.1" xmlns:xlink="http://www.w3.org/1999/xlink" xmlns:svgjs="http://svgjs.com/svgjs" width="1440" height="609" preserveAspectRatio="none" viewBox="0 0 1440 609"><g mask="url(&quot;#SvgjsMask1027&quot;)" fill="none"><path d="M896.42 452.03a26.91 26.91 0 1 0 52.88-9.98z" fill="rgba(250, 148, 91, 1)"></path><path d="M212.58 119.41a37.05 37.05 0 1 0 67.5 30.56z" stroke="rgba(250, 148, 91, 1)"></path><path d="M409.39 513.14 a13.42 13.42 0 1 0 26.84 0 a13.42 13.42 0 1 0 -26.84 0z" fill="rgba(233, 93, 144, 1)"></path><path d="M1093.89 194.22L1123.06 194.22L1123.06 215.07L1093.89 215.07z" fill="rgba(137, 79, 216, 1)"></path><path d="M1084.7 127.03a10.04 10.04 0 1 0-17.38 10.07z" fill="rgba(233, 93, 144, 1)"></path><path d="M1278.03 85.36 a1.82 1.82 0 1 0 3.64 0 a1.82 1.82 0 1 0 -3.64 0z" fill="rgba(250, 148, 91, 1)"></path><path d="M722.25 390.84 a30.73 30.73 0 1 0 61.46 0 a30.73 30.73 0 1 0 -61.46 0z" fill="rgba(233, 93, 144, 1)"></path><path d="M845.7 469.46L905.79 469.46L905.79 529.55L845.7 529.55z" stroke="rgba(233, 93, 144, 1)"></path><path d="M1300.17 433.78L1354.2 433.78L1354.2 487.81L1300.17 487.81z" stroke="rgba(137, 79, 216, 1)"></path><path d="M1402.9 236.47a33.7 33.7 0 1 0-66.75-9.35z" fill="rgba(137, 79, 216, 1)"></path><path d="M759 531.51 a35.95 35.95 0 1 0 71.9 0 a35.95 35.95 0 1 0 -71.9 0z" stroke="rgba(137, 79, 216, 1)"></path><path d="M369.54 124.06L377.36 124.06L377.36 169.85L369.54 169.85z" fill="rgba(250, 148, 91, 1)"></path><path d="M1036.47 216.43L1085.68 216.43L1085.68 265.64L1036.47 265.64z" fill="rgba(137, 79, 216, 1)"></path><path d="M749.27 202.11a5.22 5.22 0 1 0-10.11-2.59z" stroke="rgba(250, 148, 91, 1)"></path><path d="M746.49 380.61L802.71 380.61L802.71 396.43L746.49 396.43z" fill="rgba(250, 148, 91, 1)"></path><path d="M1161.21 552.98L1200.76 552.98L1200.76 595.72L1161.21 595.72z" fill="rgba(233, 93, 144, 1)"></path><path d="M55.83 261.64 a47.81 47.81 0 1 0 95.62 0 a47.81 47.81 0 1 0 -95.62 0z" fill="rgba(250, 148, 91, 1)"></path><path d="M200.56 349.49a24.11 24.11 0 1 0-43.01 21.8z" stroke="rgba(233, 93, 144, 1)"></path><path d="M1326.99 397.91 a56.19 56.19 0 1 0 112.38 0 a56.19 56.19 0 1 0 -112.38 0z" fill="rgba(137, 79, 216, 1)"></path><path d="M841.98 271.04 a26.85 26.85 0 1 0 53.7 0 a26.85 26.85 0 1 0 -53.7 0z" stroke="rgba(233, 93, 144, 1)"></path><path d="M816.13 216.89L844.3 216.89L844.3 230.62L816.13 230.62z" fill="rgba(250, 148, 91, 1)"></path><path d="M1433.69 522.25L1492.62 522.25L1492.62 543.56L1433.69 543.56z" fill="rgba(233, 93, 144, 1)"></path><path d="M216.55 555.27a39.41 39.41 0 1 0 75.8 21.6z" stroke="rgba(137, 79, 216, 1)"></path><path d="M701.93 48.79 a38.23 38.23 0 1 0 76.46 0 a38.23 38.23 0 1 0 -76.46 0z" stroke="rgba(233, 93, 144, 1)"></path><path d="M307.31 61.67L319.56 61.67L319.56 80.52L307.31 80.52z" stroke="rgba(233, 93, 144, 1)"></path><path d="M1201.47 275.3a6.38 6.38 0 1 0 11.3-5.93z" stroke="rgba(233, 93, 144, 1)"></path><path d="M212 466.71L244.68 466.71L244.68 499.39L212 499.39z" fill="rgba(233, 93, 144, 1)"></path><path d="M585.64 154.29L587.61 154.29L587.61 197.16L585.64 197.16z" fill="rgba(233, 93, 144, 1)"></path><path d="M665.77 103.21 a24.06 24.06 0 1 0 48.12 0 a24.06 24.06 0 1 0 -48.12 0z" fill="rgba(250, 148, 91, 1)"></path><path d="M785.2 344.07L793.68 344.07L793.68 352.55L785.2 352.55z" fill="rgba(233, 93, 144, 1)"></path></g><defs><mask id="SvgjsMask1027"><rect width="1440" height="609" fill="#ffffff"></rect></mask></defs></svg>