<svg xmlns="http://www.w3.org/2000/svg" version="1.1" xmlns:xlink="http://www.w3.org/1999/xlink" xmlns:svgjs="http://svgjs.com/svgjs" width="1440" height="760" preserveAspectRatio="none" viewBox="0 0 1440 760"><g mask="url(&quot;#SvgjsMask1018&quot;)" fill="none"><path d="M761.13 539.28L812.2 539.28L812.2 592.03L761.13 592.03z" fill="rgba(137, 79, 216, 1)"></path><path d="M659.29 148.32L668.47 148.32L668.47 197.14L659.29 197.14z" stroke="rgba(250, 148, 91, 1)"></path><path d="M807.49 349.03L859.59 349.03L859.59 362.12L807.49 362.12z" fill="rgba(250, 148, 91, 1)"></path><path d="M778.59 344.19L797.38 344.19L797.38 362.98L778.59 362.98z" fill="rgba(137, 79, 216, 1)"></path><path d="M577.66 329.08L632.74 329.08L632.74 399.98L577.66 399.98z" fill="rgba(250, 148, 91, 1)"></path><path d="M1325.76 319.51a50.58 50.58 0 1 0 51.97 86.78z" stroke="rgba(250, 148, 91, 1)"></path><path d="M941.06 516.47 a56.36 56.36 0 1 0 112.72 0 a56.36 56.36 0 1 0 -112.72 0z" stroke="rgba(137, 79, 216, 1)"></path><path d="M272.47 697.72 a61.22 61.22 0 1 0 122.44 0 a61.22 61.22 0 1 0 -122.44 0z" fill="rgba(250, 148, 91, 1)"></path><path d="M1281.34 474.73L1352.9 474.73L1352.9 498.72L1281.34 498.72z" fill="rgba(250, 148, 91, 1)"></path><path d="M470.68 321.92a42.93 42.93 0 1 0 84.4-15.8z" stroke="rgba(137, 79, 216, 1)"></path><path d="M14.8 195.57L40.79 195.57L40.79 221.56L14.8 221.56z" fill="rgba(250, 148, 91, 1)"></path><path d="M758.54 595.38L814.4 595.38L814.4 667.46L758.54 667.46z" fill="rgba(233, 93, 144, 1)"></path><path d="M200.35 320.97 a68.04 68.04 0 1 0 136.08 0 a68.04 68.04 0 1 0 -136.08 0z" stroke="rgba(233, 93, 144, 1)"></path><path d="M754.92 250.59L787.28 250.59L787.28 282.95L754.92 282.95z" fill="rgba(233, 93, 144, 1)"></path><path d="M1308.77 27.02L1354.41 27.02L1354.41 33.45L1308.77 33.45z" fill="rgba(233, 93, 144, 1)"></path><path d="M202.02 236.22a1.17 1.17 0 1 0 1.51-1.79z" stroke="rgba(233, 93, 144, 1)"></path><path d="M359.7-15.29a33.76 33.76 0 1 0-10.22 66.74z" fill="rgba(233, 93, 144, 1)"></path><path d="M923.6 120.16L953.36 120.16L953.36 149.92L923.6 149.92z" stroke="rgba(250, 148, 91, 1)"></path><path d="M382.26 291.79 a75.87 75.87 0 1 0 151.74 0 a75.87 75.87 0 1 0 -151.74 0z" stroke="rgba(233, 93, 144, 1)"></path><path d="M850.26 347.53L851.55 347.53L851.55 348.82L850.26 348.82z" stroke="rgba(137, 79, 216, 1)"></path><path d="M705.01 589.25L744.44 589.25L744.44 611.74L705.01 611.74z" stroke="rgba(250, 148, 91, 1)"></path><path d="M214.12 95.3a65.35 65.35 0 1 0-96.92-87.68z" fill="rgba(233, 93, 144, 1)"></path><path d="M182.66 270.08L208.38 270.08L208.38 301.4L182.66 301.4z" stroke="rgba(137, 79, 216, 1)"></path><path d="M324.15 329.52L373.49 329.52L373.49 381.25L324.15 381.25z" stroke="rgba(233, 93, 144, 1)"></path></g><defs><mask id="SvgjsMask1018"><rect width="1440" height="760" fill="#ffffff"></rect></mask></defs></svg>