<svg xmlns="http://www.w3.org/2000/svg" version="1.1" xmlns:xlink="http://www.w3.org/1999/xlink" xmlns:svgjs="http://svgjs.com/svgjs" width="1440" height="760" preserveAspectRatio="none" viewBox="0 0 1440 760"><g mask="url(&quot;#SvgjsMask1010&quot;)" fill="none"><path d="M1482.19 437.87a72.55 72.55 0 1 0-119.84-81.82z" fill="rgba(233, 93, 144, 1)"></path><path d="M876.38 685.15 a14.27 14.27 0 1 0 28.54 0 a14.27 14.27 0 1 0 -28.54 0z" fill="rgba(233, 93, 144, 1)"></path><path d="M158.02 7.28 a13.24 13.24 0 1 0 26.48 0 a13.24 13.24 0 1 0 -26.48 0z" stroke="rgba(233, 93, 144, 1)"></path><path d="M289.52 304.1L361.94 304.1L361.94 376.52L289.52 376.52z" fill="rgba(250, 148, 91, 1)"></path><path d="M1139.48 667.78a37.52 37.52 0 1 0 71.39-23.11z" stroke="rgba(250, 148, 91, 1)"></path><path d="M541.27 290.49a62.64 62.64 0 1 0 60.49 109.71z" stroke="rgba(137, 79, 216, 1)"></path><path d="M6.96 565.55L44.72 565.55L44.72 603.31L6.96 603.31z" stroke="rgba(233, 93, 144, 1)"></path><path d="M1295.16 28.78 a34.43 34.43 0 1 0 68.86 0 a34.43 34.43 0 1 0 -68.86 0z" stroke="rgba(233, 93, 144, 1)"></path><path d="M1126.75 501.76L1130.45 501.76L1130.45 534.71L1126.75 534.71z" stroke="rgba(250, 148, 91, 1)"></path><path d="M967.94 507.69 a37.48 37.48 0 1 0 74.96 0 a37.48 37.48 0 1 0 -74.96 0z" fill="rgba(233, 93, 144, 1)"></path><path d="M556.69 543.21L624.57 543.21L624.57 546.09L556.69 546.09z" fill="rgba(137, 79, 216, 1)"></path><path d="M925.44 317.49L950.17 317.49L950.17 387.21L925.44 387.21z" fill="rgba(233, 93, 144, 1)"></path><path d="M429.37 718.72L453.18 718.72L453.18 780.71L429.37 780.71z" stroke="rgba(250, 148, 91, 1)"></path><path d="M1017.99 176.8 a60.98 60.98 0 1 0 121.96 0 a60.98 60.98 0 1 0 -121.96 0z" stroke="rgba(233, 93, 144, 1)"></path><path d="M523.26 190.07a39.26 39.26 0 1 0 32.62-71.43z" stroke="rgba(233, 93, 144, 1)"></path><path d="M590.02 707.8L635.97 707.8L635.97 745.48L590.02 745.48z" fill="rgba(233, 93, 144, 1)"></path><path d="M1132.92 717.91L1149.69 717.91L1149.69 736.11L1132.92 736.11z" fill="rgba(233, 93, 144, 1)"></path><path d="M153.83 309.2L201.97 309.2L201.97 331.46L153.83 331.46z" fill="rgba(137, 79, 216, 1)"></path><path d="M654.71 284.63L693.43 284.63L693.43 323.35L654.71 323.35z" stroke="rgba(250, 148, 91, 1)"></path><path d="M1444.46 372.9a69.39 69.39 0 1 0-134.61-33.73z" fill="rgba(137, 79, 216, 1)"></path><path d="M46.91 715.86a71.87 71.87 0 1 0 135.67-47.5z" stroke="rgba(233, 93, 144, 1)"></path><path d="M42.64 268.58 a49.81 49.81 0 1 0 99.62 0 a49.81 49.81 0 1 0 -99.62 0z" fill="rgba(233, 93, 144, 1)"></path><path d="M1330.42 17.21 a14.88 14.88 0 1 0 29.76 0 a14.88 14.88 0 1 0 -29.76 0z" fill="rgba(137, 79, 216, 1)"></path><path d="M204.98 263.81L259.12 263.81L259.12 317.95L204.98 317.95z" stroke="rgba(137, 79, 216, 1)"></path></g><defs><mask id="SvgjsMask1010"><rect width="1440" height="760" fill="#ffffff"></rect></mask></defs></svg>